<svg xmlns="http://www.w3.org/2000/svg" viewBox="0 0 69 119"><defs><style>.cls-1{fill:#35beea;}</style></defs><g id="Слой_2" data-name="Слой 2"><g id="Слой_4" data-name="Слой 4"><path class="cls-1" d="M69,29c-3.62,1.53-4.51,1.1-4.89-2.34s-.38-3.5-3.55-3.5q-26,0-52,0c-3.64,0-3.67,0-3.68,3.87q0,20.74,0,41.49c0,1,.06,2,0,3C4.65,74.92,3.7,75.39,0,74V9C1.79,5.22,4.93,2.64,8,0H60c3.83,2.17,7.06,4.94,9,9ZM34.25,18.18h4.5c7.49,0,15-.05,22.47,0,2,0,2.9-.35,3-2.68C64.33,7.78,61.73,4.91,54,4.9q-19.73,0-39.46,0c-6.94,0-9.67,2.79-9.63,9.63,0,3.63-.48,3.67,3.89,3.66C17.27,18.16,25.76,18.18,34.25,18.18Z"/><path class="cls-1" d="M0,90c3.62-1.53,4.51-1.1,4.89,2.34s.38,3.5,3.55,3.5q26,0,52,0c3.64,0,3.67,0,3.68-3.87q0-20.75,0-41.49c0-1-.06-2,0-3,.23-3.4,1.18-3.87,4.88-2.48v65c-1.94,4.06-5.17,6.83-9,9H8c-3.07-2.64-6.21-5.22-8-9Zm34.75,10.83H30.26c-7.49,0-15,0-22.47,0-2,0-2.91.34-3,2.68C4.67,111.22,7.27,114.09,15,114.1q19.73,0,39.45,0c7,0,9.67-2.79,9.63-9.63,0-3.63.49-3.67-3.88-3.65C51.73,100.85,43.24,100.83,34.75,100.83Z"/><path class="cls-1" d="M34.28,85.81C18,85.1,8,72.37,8.2,59.16,8.46,45,19.58,33,35,33.31A25.92,25.92,0,0,1,60.8,59.59C60.71,73.49,49.94,85.42,34.28,85.81Zm18-26c3.67.05,3.94-.15,3.53-2.72C54,46,46.07,38.67,35.19,38.26a20.82,20.82,0,0,0-21.51,17c-.8,4.61-.72,4.78,3.85,4.61a3,3,0,0,0,3-2.06,42,42,0,0,1,2.41-4.9c.56-.89,1.75-2.17,2.39-2a4.68,4.68,0,0,1,2.75,2.29c1.45,2.78,2.57,5.73,3.88,8.58A5.38,5.38,0,0,0,33,63a5.38,5.38,0,0,0,.88-1.1c1.85-4.42,3.59-8.88,5.54-13.26.43-1,1.67-2.34,2.32-2.23a4.65,4.65,0,0,1,2.88,2.24,78.77,78.77,0,0,1,3.84,8.6C49.24,59.23,50.4,60.24,52.24,59.8Zm-26.72-.24c-3.09,5.09-3.09,5.09-8.58,5.22h-.5c-2.61.1-2.64.14-1.76,2.42A20.77,20.77,0,0,0,34.33,80.76,20.77,20.77,0,0,0,54.18,67.52c1-2.64,1-3-1.77-2.65-4.63.57-7.24-1.28-8.4-5.62a6.78,6.78,0,0,0-.6-1.35c-.37-.68-.77-1.35-1.16-2a10.1,10.1,0,0,0-1.32,1.85c-1.71,3.93-3.25,8-5.07,11.83-.58,1.24-1.71,2.89-2.81,3.07-1.86.31-2.52-1.63-3.18-3.2C28.54,66.23,27.09,63.09,25.52,59.56Z"/><path class="cls-1" d="M34.27,14c-3.32,0-6.64,0-10,0-1.54,0-2.78-.73-2.87-2.18a2.54,2.54,0,0,1,2.83-2.74c6.81,0,13.62,0,20.44,0,1.79,0,2.94,1.07,2.88,2.71C47.52,13.22,46.29,14,44.74,14Z"/><path class="cls-1" d="M34.5,105c1.32,0,2.77-.33,3.93.1a4.37,4.37,0,0,1,2.38,2.5c.16.49-1.28,2.08-2.1,2.16a42.31,42.31,0,0,1-8.42,0c-.82-.08-2.26-1.67-2.1-2.16a4.37,4.37,0,0,1,2.38-2.5C31.73,104.7,33.18,105,34.5,105Z"/></g></g></svg>