<svg xmlns="http://www.w3.org/2000/svg" viewBox="0 0 98 108"><defs><style>.cls-1{fill:#33bdea;}</style></defs><g id="Слой_2" data-name="Слой 2"><g id="Слой_4" data-name="Слой 4"><path class="cls-1" d="M46,108H40c-1.64-2-4.38-3.79-4.7-6-.72-4.82-.22-9.82-.22-15.21l4,.76c0,3.75.08,7.23,0,10.7-.1,3.13,1,5.14,4.18,5.51,3.1-.85,3.77-3,3.74-5.77-.09-8.5,0-17,0-25.48,0-1.76-.46-3.83,2.19-4.24,2.58.63,2,2.72,2,4.44,0,8.5.07,17,0,25.49,0,3.09,1,5.15,4.11,5.55,3.55-.83,3.82-3.33,3.8-6.2-.07-12,0-24,0-36,0-1.27-.16-2.54-.25-3.74H39V73.48l-3.74.61c-.85-5.48,0-10.78-.55-16.19H17.57V71H0V40H17.73V52.88h5.44V44.21c0-3,0-6,0-9C23.36,24.93,30.62,19.11,38,19a3.53,3.53,0,0,0,1.17-.45c-3.33-8.59-2-13,5-17.57A4,4,0,0,0,45,0h8c.85.67,1.67,1.36,2.54,2a11.53,11.53,0,0,1,4.52,13.17c-.35,1.19-.85,2.35-1.34,3.71,7,.32,12.19,3.16,14.67,9.58a26,26,0,0,1,1.38,8.26c.2,5.41.06,10.84.06,16.23h5c1-4.31-.62-8.72,1.18-13H98V71H80.17V58h-17c0,13.13-.2,25.88.1,38.62.11,4.91-1.09,8.68-5.25,11.36H52l-3-2.49ZM58.91,53V39l4.24-.2v14h7.24c0-5.76,0-11.23,0-16.7,0-.83,0-1.67-.08-2.49-.56-6-4.25-10-10.22-10.23-7.31-.29-14.65-.27-22,0-6,.21-10,4.08-10.32,10.06-.32,6.42-.07,12.86-.07,19.31h7.36V38.56l4.16.82V53ZM4.46,44.26V66.65h8.79V44.26Zm89.2,0H84.82v22.3h8.84ZM49,19a7.25,7.25,0,0,0,7.24-7.25,7.56,7.56,0,0,0-7-7.58,7.56,7.56,0,0,0-7.49,7.61A7.25,7.25,0,0,0,49,19Z"/><path class="cls-1" d="M36.84,78.23c1.74.59,3,1.58,1.6,3.44a2.87,2.87,0,0,1-2.83.18C34.12,80.27,34.93,79,36.84,78.23Z"/></g></g></svg>