<svg xmlns="http://www.w3.org/2000/svg" viewBox="0 0 84.18 107"><defs><style>.cls-1{fill:#35beea;}</style></defs><g id="Слой_2" data-name="Слой 2"><g id="Слой_4" data-name="Слой 4"><path class="cls-1" d="M51,0c4,1.35,8.18,2.36,12,4.11C72.54,8.46,79.73,15,81.39,26c1.15,7.64-1.87,14-6.69,19.8,4.77,6.14,8.58,12.62,9.48,20.8l-2.52.5c-4-7.59-7.84-14.67-11.91-22.27.4-.45,1.37-1.55,2.32-2.66,7.4-8.66,7.07-19.87-1.2-27.73C61.22,5.3,49.3,3.11,36.57,4.43A38.15,38.15,0,0,0,16.8,12.06c-11,8.49-12.09,20.79-2.88,31.17.65.73,1.21,1.54,2,2.58C7.41,55.28,2.73,66.08,4.72,79.07c1.47,9.66,5.33,16.75,13.18,23.77H67c7.67-5.93,11.21-14.41,13.7-23.15,4.1.81,3.45,2.91,2.91,4.84a44,44,0,0,1-11.1,19.21A35.11,35.11,0,0,0,70,107H63a11.41,11.41,0,0,0-3.14-1q-19.36-.1-38.72,0A11.41,11.41,0,0,0,18,107H15c-1.63-2-3.19-4-4.9-5.83C4.84,95.38,2.61,88.1,0,81V66L9.58,44.87c-4.29-5.09-7.08-11.44-5.9-19C5.37,14.86,12.57,8.42,22,4.1,25.86,2.36,30,1.34,34,0Z"/><path class="cls-1" d="M18,107a11.41,11.41,0,0,1,3.14-1q19.36-.1,38.72,0A11.41,11.41,0,0,1,63,107Z"/><path class="cls-1" d="M56.85,38.22a40.82,40.82,0,0,0-28.92.09,37.43,37.43,0,0,1-4.27-2.86c-4.88-4.24-4.86-8.83-.05-13.1,8.85-7.88,28.93-7.89,37.77,0C67.42,27.69,65.89,33.4,56.85,38.22Zm4.27-9.07c-4.32-6.53-11-9.08-21.64-8.24-6.21.49-12.07,2-15.64,8.32l4.22,4.48c9.87-3.44,19.53-3,29.19-.11Z"/></g></g></svg>