<svg xmlns="http://www.w3.org/2000/svg" viewBox="0 0 116.63 118.78"><defs><style>.cls-1{fill:#3da2d9;}</style></defs><g id="Слой_2" data-name="Слой 2"><g id="_1" data-name="1"><path class="cls-1" d="M94.82,0l.81,2.45c-.46.73-.92,1.6-1.5,2.38-4.9,6.59-5.56,14-3.51,21.59,1.1,4.06,3.31,7.83,5.07,11.7,3,6.57,6.28,13,8.93,19.69,2.82,7.11,2.2,14.61.85,21.94a177.87,177.87,0,0,1-10.63,35.77c-.44,1.06-1,2.07-1.55,3.26H23.46c-3.52-4.89-6.21-13.06-5.6-17.21a4.67,4.67,0,0,1,1.28-.47,15.24,15.24,0,0,1,2.24.21c.78,2.12,1.54,4.26,2.35,6.37s1.57,3.95,2.45,6.16H55.31V97.64c-4.31-.87-7.9-3.32-11.41-6.09-8-6.33-16.2-12.47-24.32-18.68-1.16-.89-2.38-1.7-4-2.84-1,5.67.79,10.61,1.58,16.63l-2,2.17c-1.43-1.23-2.56-1.71-2.77-2.46-.78-2.66-1.25-5.42-1.82-8.14-2.49-11.93.78-22.77,6.3-33.18,2.08-3.93,4.3-7.78,6.24-11.77C28.3,22.66,28.28,12.4,20.59,2.62L21.44,0Zm5.68,69.15a9.21,9.21,0,0,0-1.72.86c-6,4.6-12,9.34-18.06,13.81C74.24,88.56,68.49,94.35,61,97.6V114H90.16C92,108.83,94,103.83,95.55,98.67c2.77-9.45,5.68-18.89,5.56-28.9l.1-1.16ZM29,5.08c.83,3.6,1.86,7.07,2.37,10.61,1.17,8-1,15.31-4.88,22.24-1.59,2.81-3,5.71-4.48,8.47,18.79,14.3,59.36,12,72.2-.38-1.45-2.69-2.86-5.47-4.39-8.18-3.91-6.93-6-14.27-4.85-22.25.52-3.51,1.56-6.95,2.38-10.51ZM15.46,62.79c.33.49.45.84.7,1,11.5,8.86,23,17.77,34.55,26.5,4.19,3.16,9.43,3,13.76-.29,12.07-9.17,24-18.48,36.13-27.78-1-3.79-1.61-7.64-3.95-10.44-25.92,12.94-51.4,12.89-77.16,0C17.25,55,16.51,59.06,15.46,62.79Z"/><path class="cls-1" d="M116.63,22.81H101.85l3,4.55-3,3.17L92.22,21c2.53-4.17,6-6.81,9.36-10l3.33,2.44-3,4.61c3.31,0,6.41-.1,9.49,0a44.14,44.14,0,0,1,5.21.84Z"/><path class="cls-1" d="M0,22.85c-.17-4.37.06-4.77,3-4.86,3.61-.11,7.22,0,11.34,0l-3-4.14,3.19-3.35L23.68,20.8c-2.21,3.46-5.74,6.06-9,9.46l-3.38-2.52,3.16-4.89Z"/><path class="cls-1" d="M57.14,34c2.15-.7,3.3.57,3.46,2.35.24,2.88.76,5.87-.67,8.94l-3.09.32c-.43-.59-.89-.94-1-1.37C54.93,40.08,55.36,36.82,57.14,34Z"/></g></g></svg>