<svg xmlns="http://www.w3.org/2000/svg" viewBox="0 0 117.03 118.01"><defs><style>.cls-1{fill:#3da2d9;}</style></defs><g id="Слой_2" data-name="Слой 2"><g id="_1" data-name="1"><path class="cls-1" d="M117,51.56c-4.29.36-4.68.06-4.87-3.79-.24-5.05-.24-5.06-5.42-5.06q-48.57,0-97.15,0c-5.24,0-4.68-.67-4.69,4.8,0,11.4,0,22.8,0,34.2v3c0,1.77-.29,3.48-2.49,3.53C0,88.29,0,86.5,0,84.76c0-5,0-9.92,0-14.88Q0,46.09,0,22.3C0,13.21,5.12,7.82,14.19,7.39c3.29-.15,6.61-.13,9.91,0,2.41.1,3.93-.4,3.49-3.24a6.11,6.11,0,0,1,0-1.48c.13-1.42.52-2.63,2.27-2.67s2.27,1,2.62,2.42c.39,1.55-.78,3.79.85,4.58s3.54.33,5.34.34c4.63,0,9.26-.11,13.88.06,2.53.09,3.71-.66,3.45-3.3a7.28,7.28,0,0,1,.31-2.44A2.07,2.07,0,0,1,58.47,0a2,2,0,0,1,2.22,1.56A15.72,15.72,0,0,1,61.07,5c0,1.6.59,2.41,2.32,2.39,6.27,0,12.55-.06,18.83,0C84,7.4,84.59,6.66,84.49,5a12.06,12.06,0,0,1,.09-2.48C84.8,1.16,85.41,0,87.07,0s2.26,1.08,2.37,2.55a10.93,10.93,0,0,1,0,2c-.24,2.19.79,2.94,2.88,2.84s4.31.15,6.44,0c8.16-.74,14.41,2,18.24,9.53ZM58.67,37.81H66.6c13.87,0,27.75-.05,41.62,0,2.7,0,4.32-.16,4-3.62-.36-4.27,0-8.59-.11-12.88-.13-5.21-2.87-8.34-8.1-8.82-3.93-.36-7.92-.19-11.88-.22-1.12,0-2.47-.19-2.63,1.49-.12,1.31-.24,2.61,1.42,3.27a7.88,7.88,0,0,1,2.41,1.7,8.72,8.72,0,0,1,1.49,10.9,9.19,9.19,0,0,1-10.3,4,8.63,8.63,0,0,1-6.29-8.46,8.27,8.27,0,0,1,4.78-8c1.85-.95,1.59-2.41,1.33-3.76-.28-1.55-1.78-1.13-2.87-1.14-5.78,0-11.56,0-17.34,0-1.12,0-2.58-.32-2.93,1.13-.29,1.19-.6,2.66,1,3.48a11.59,11.59,0,0,1,2.08,1.35,9,9,0,0,1,.6,13.19,9.25,9.25,0,0,1-12.55.15,9,9,0,0,1,.29-13.19A20,20,0,0,1,55.1,16.8c1.2-.8.93-2,.78-3.14-.17-1.25-1.24-1.35-2.27-1.35H34.78c-1,0-2.09.09-2.15,1.42-.05,1.08-.48,2.33.79,3.11a17.9,17.9,0,0,1,2.09,1.31,9,9,0,0,1,.93,13.18A9.16,9.16,0,0,1,23.22,31c-3.51-4-2.91-9.7,1.43-13.1a7.42,7.42,0,0,1,1.69-1c1.7-.71,1.3-2.18,1.13-3.4s-1.37-1.22-2.36-1.21c-4,0-7.94-.16-11.88.18C7.77,13,5,16.14,4.91,21.64c-.08,4.13.18,8.27-.08,12.39-.2,3,.67,3.89,3.79,3.86C25.3,37.72,42,37.81,58.67,37.81Z"/><path class="cls-1" d="M9,118c-2-2.24-5.27-3.1-6.79-6C1.08,110,0,108,0,105.56c0-1.52-.08-3.12,2-3.4s2.66.91,2.92,2.57a15.66,15.66,0,0,0,.23,2A8.73,8.73,0,0,0,13,113.11c.33,0,.66,0,1,0q44.54,0,89.06,0c5.79,0,9.06-3.43,9.1-9.33.08-11.22,0-22.44,0-33.65,0-4.33.81-4.86,4.85-3.69v41.65a17.79,17.79,0,0,1-9.91,9.92Z"/><path class="cls-1" d="M117,60.49a9.23,9.23,0,0,1-1.74.71,2.35,2.35,0,0,1-3-2.33c-.1-1.4.9-2.3,2.45-2.36.75,0,1.51.63,2.26,0Z"/><path class="cls-1" d="M30.77,62.53c-.23,11.43,2,10.22-10.16,10.3-2.31,0-4.62,0-6.93,0S10,71.67,10.06,69.19c0-4.45,0-8.91,0-13.36,0-2.48,1.17-3.6,3.63-3.58,4.45,0,8.91.07,13.36,0,2.74,0,3.92,1.1,3.74,3.87C30.66,58.23,30.77,60.39,30.77,62.53Zm-4.91.18c-.1-6.25.81-5.48-4.92-5.5-6.71,0-5.89-.63-5.89,5.11,0,6.07-.87,5.53,5.5,5.52C26.67,67.83,25.76,68.55,25.86,62.71Z"/><path class="cls-1" d="M45.78,52.26c2.31,0,4.62,0,6.93,0,2.5-.06,3.6,1.19,3.59,3.6,0,4.46,0,8.91,0,13.36,0,2.44-1.15,3.64-3.63,3.62-4.61,0-9.23,0-13.85,0-2.21,0-3.24-1.07-3.2-3.38.1-4.45.14-8.91,0-13.35-.09-2.77,1-4,3.74-3.84C41.49,52.33,43.64,52.26,45.78,52.26Zm-5.23,10c.09,6.22-.76,5.55,4.87,5.56,6.54,0,6,.62,5.94-5.1,0-6.07.85-5.55-5.47-5.53C39.8,57.23,40.65,56.49,40.55,62.28Z"/><path class="cls-1" d="M81.41,62.51c0,10.32,0,10.32-10.11,10.32-2.31,0-4.62,0-6.92,0-2.48,0-3.63-1.2-3.63-3.62q0-6.69,0-13.36c0-2.42,1.1-3.63,3.6-3.61,4.45,0,8.9.08,13.35,0,2.75,0,3.91,1.1,3.72,3.85C81.29,58.22,81.41,60.37,81.41,62.51Zm-4.9.22c-.1-6.22.76-5.51-4.9-5.52-6.6,0-5.92-.64-5.92,5.09,0,6-.78,5.56,5.49,5.54C77.24,67.82,76.41,68.53,76.51,62.73Z"/><path class="cls-1" d="M86.29,62.1c0-1.32,0-2.64,0-4,0-5.85,0-5.86,5.62-5.88,3.63,0,7.27.08,10.89,0,2.89-.09,4.28,1,4.21,4-.1,4.29-.05,8.58,0,12.87,0,2.45-1.1,3.69-3.56,3.69H89.58c-2.56,0-3.45-1.36-3.32-3.8S86.29,64.41,86.29,62.1Zm10.57-4.9c-6.57.08-5.59-.68-5.65,4.77-.08,5.88,0,5.9,5,5.88,6.56,0,5.76.52,5.76-5.28S102.86,57.24,96.86,57.2Z"/><path class="cls-1" d="M30.77,88.55c0,2.3-.06,4.61,0,6.91s-.81,3.72-3.4,3.69c-4.6-.06-9.21-.05-13.82,0-2.56,0-3.5-1.37-3.5-3.71q0-6.66,0-13.33c0-2.71,1.39-3.78,4-3.72q6.42.12,12.84,0c2.66-.06,4,1,3.85,3.76C30.68,84.27,30.77,86.41,30.77,88.55Zm-10-5.24c-6.69.1-5.68-.77-5.74,5.14-.06,5.76,0,5.76,5.12,5.77,5.69,0,5.69,0,5.69-5.15C25.87,83.31,25.87,83.31,20.79,83.31Z"/><path class="cls-1" d="M96.21,99.13H89.3c-2,0-3-1-3-3,0-4.77,0-9.54,0-14.32,0-2.26,1-3.36,3.22-3.37,4.61,0,9.22,0,13.82,0,2.47,0,3.66,1.17,3.67,3.58,0,4.44,0,8.88,0,13.32,0,2.64-1.1,4-3.87,3.86C100.82,99.05,98.52,99.13,96.21,99.13ZM102,88.81c-.11-6.24,1-5.44-5.4-5.49-5.43,0-5.43,0-5.43,5.4s0,5.54,5.34,5.49C103,94.15,101.9,95,102,88.81Z"/><path class="cls-1" d="M35.66,88.86c0-2.47,0-4.93,0-7.4,0-2,1-3,3-3,4.77,0,9.53,0,14.3,0,2,0,3.22,1.06,3.27,2.92.14,4.92.13,9.86,0,14.78a2.83,2.83,0,0,1-3.14,3q-7.14,0-14.29,0c-2.31,0-3.23-1.15-3.17-3.37S35.66,91.16,35.66,88.86Zm10.72-5.55c-5.81,0-5.81,0-5.83,4.62,0,6.27,0,6.31,4.67,6.28,7.09-.06,6.13.75,6.13-4.87C51.34,82.6,52.3,83.41,46.38,83.31Z"/><path class="cls-1" d="M81.33,87.29c0,.17,0,.37-.08.48a67.34,67.34,0,0,1-11,11.13,1.54,1.54,0,0,1-1.86-.13,46.53,46.53,0,0,1-7-6.93,2.12,2.12,0,0,1,0-2.73c.86-1.19,2-.93,3.09-.64.29.07.51.4.79.56,1.71,1,2.31,4.22,4.87,3.12,1.69-.73,2.86-2.64,4.28-4,1.06-1,2.1-2.08,3.25-3a2,2,0,0,1,2.7,0A2.32,2.32,0,0,1,81.33,87.29Z"/><path class="cls-1" d="M4.84,94.92c-.27,1.69-1.15,2.56-2.66,2.52A2,2,0,0,1,0,95.27a2.06,2.06,0,0,1,2-2.33C3.6,92.75,4.33,93.78,4.84,94.92Z"/></g></g></svg>