<svg xmlns="http://www.w3.org/2000/svg" viewBox="0 0 117.11 116.85"><defs><style>.cls-1{fill:#3da2d9;}</style></defs><g id="Слой_2" data-name="Слой 2"><g id="_1" data-name="1"><path class="cls-1" d="M68.54.65c23.62,3.16,44.52,24.05,47.68,47.68a1.17,1.17,0,0,0,.89,1V68.18c-1,.29-.89,1.2-1,2A58.76,58.76,0,0,1,47.91,115.9C19,110.77-5.47,82,1.07,47.82,5.64,24,19.86,7.62,43.35,1.61,51.34-.43,59.84-.27,68.54.65Zm-47.64,57C15,48.43,19.27,39,28.34,32.24l-9.78-9.39C.77,40.62-1.43,76.06,22.28,98c22.38,20.66,56.41,16.73,72.24-.41-1.59-1.08-2.4-3-4.42-3.7-7.48,4-15.24,6.74-23.46,6.89-1.52-1.84-1.48-3.12.07-4.5a94,94,0,0,0,9.91-2c3.45-1,6.83-2,9.81-4.2L74,77.93c-4.05,1.39-9,1-14.14,1.7l-5.14,4.43c-1.75,1.51-3.47,3-5.29,4.49-4.34,3.44-8.4,3.16-12.27-.8-.81-.83-1.51-1.75-2.27-2.62L25.48,74.19a11.9,11.9,0,0,0-2.58,6.39C24,85.91,27.78,88.7,32.12,91A52.77,52.77,0,0,0,49.55,96a6.18,6.18,0,0,1,1.62.69c.81,1.5.79,2.7-.45,3.68a3,3,0,0,1-2.39.39c-6.69-1.06-13.22-2.63-19.22-5.92a24.25,24.25,0,0,1-7.68-6.14C18,84.35,17,79.63,19.61,74.47c.74-1.44,1.5-2.87,2.29-4.36C18.33,66.13,17.74,62,20.9,57.61Zm77.57,36.5C117.6,73.52,117.54,38.8,94.31,18,72.22-1.75,39.23,1.67,23.23,18.27l10.26,11a60,60,0,0,1,40.17-3.63c6.63,1.6,12.84,4.32,18,8.94C97.79,40.16,102.26,48.52,96,58c1,3.79-.61,7.22-2.42,10.54,3.13,3.39,5.26,7.09,5.47,11.56.2,4.16-2.22,7.35-4.66,10.41C95.75,91.83,96.64,93.26,98.47,94.11ZM69.39,64.81c1-.16,2.31-.32,3.58-.61,5.67-1.25,11.16-3,15.88-6.5A11.63,11.63,0,0,0,91.71,42C89,37.91,85,35.28,80.6,33.31A53.11,53.11,0,0,0,46.4,30c-3.06.69-6.26,1.17-8.73,3.06ZM61,65.36,31.68,36.08a24.65,24.65,0,0,0-2.59,2c-7.92,7.32-8.87,15.35,1.83,21.34l.42.24C40.75,64.61,50.84,65.93,61,65.36Zm1.24,5.36C48.68,70.8,35.83,69,24.47,61.15A3.82,3.82,0,0,0,24.9,66c5.28,6.1,10.51,12.26,15.78,18.37A4.36,4.36,0,0,0,44.5,86C50.46,81.84,56.1,76.14,62.19,70.72ZM89.61,72,81,76.25,91.14,86.5C95.69,81,95.36,77.54,89.61,72Zm.58-8.49c-5.37,2.58-11,4.14-16.86,5.89,1.2,1.37,1.88,2.52,3.52,2.9C81.93,70.58,87.17,68.85,90.19,63.47Zm-23.74,11c1.64-.6,2.76.23,3.58-.83-.2-.83-.56-1.33-1.31-1.48C67.91,72.37,67.3,72.86,66.45,74.49Z"/><path class="cls-1" d="M60.41,100.41a3,3,0,0,1-1.81.78,2.22,2.22,0,0,1-2.05-1.41,2.31,2.31,0,0,1,.34-2.36A2.4,2.4,0,0,1,60,97.14,2.47,2.47,0,0,1,60.41,100.41Z"/></g></g></svg>